<?xml version="1.0" encoding="utf-8"?>
<!-- Generator: Adobe Illustrator 24.1.2, SVG Export Plug-In . SVG Version: 6.00 Build 0)  -->
<svg version="1.1" id="Layer_1" xmlns="http://www.w3.org/2000/svg" xmlns:xlink="http://www.w3.org/1999/xlink" x="0px" y="0px"
	 viewBox="0 0 22 22" style="enable-background:new 0 0 22 22;" xml:space="preserve">
<style type="text/css">
	.st0{fill:#FFFFFF;}
	.st1{fill:none;stroke:#707070;}
	.st2{fill:#707070;}
</style>
<g id="Ellipse_15">
	<circle class="st0" cx="11" cy="11" r="11"/>
	<circle class="st1" cx="11" cy="11" r="10.5"/>
</g>
<g id="Path_161" transform="translate(0.137)">
	<path class="st0" d="M10.8,21.4c-1.3,0-2.5-0.2-3.6-0.5c-1.6-0.6-3-1.5-4.1-2.9c0.1-1.7,0.9-3.3,2.2-4.5c1.5-1.3,3.4-2,5.4-2
		c2,0,4,0.7,5.4,2c1.4,1.2,2.2,2.9,2.3,4.5c-0.9,1.2-2.2,2.1-3.9,2.7C13.2,21.3,11.7,21.4,10.8,21.4z"/>
	<path class="st2" d="M10.8,12c-1.9,0-3.7,0.7-5.1,1.9c-1.2,1.1-2,2.5-2.1,4c1,1.2,2.2,2,3.7,2.5c1,0.3,2.2,0.5,3.4,0.5
		c1.7,0,5.3-0.6,7.2-3c-0.1-1.5-0.8-2.9-2.1-4C14.5,12.7,12.7,12,10.8,12 M10.8,11c4.4,0,8.2,3.3,8.2,7.2c-2.1,3.1-6.5,3.7-8.2,3.7
		c-1.7,0-5.5-0.3-8.1-3.7C2.7,14.3,6.4,11,10.8,11z"/>
</g>
<g id="Ellipse_16">
	<circle class="st0" cx="11" cy="7.9" r="5"/>
	<circle class="st1" cx="11" cy="7.9" r="4.5"/>
</g>
</svg>
