<?xml version="1.0" encoding="utf-8"?>
<svg version="1.0" id="Layer_1" xmlns="http://www.w3.org/2000/svg" xmlns:xlink="http://www.w3.org/1999/xlink" x="0px" y="0px"
	 viewBox="0 0 11 11" style="enable-background:new 0 0 11 11;" xml:space="preserve">
<style type="text/css">
	.st0{fill:none;}
	.st1{fill:#fff;}
</style>
<path class="st0" d="M-7.5-1.1C-7.5-1.1-7.5-1.1-7.5-1.1"/>
<path class="st1" d="M5.5,0C2.5,0,0,2.5,0,5.5S2.5,11,5.5,11S11,8.5,11,5.5S8.5,0,5.5,0z M9,7.9c0.3,0.3,0.3,0.8,0,1.2
	C8.9,9.2,8.7,9.3,8.5,9.3S8.1,9.2,7.9,9.1L5.5,6.7L3.1,9.1C2.9,9.2,2.7,9.3,2.5,9.3S2.1,9.2,2,9.1C1.6,8.7,1.6,8.2,2,7.9l2.4-2.4
	L2,3.1C1.6,2.8,1.6,2.3,2,2s0.8-0.3,1.2,0l2.4,2.4L7.9,2C8.2,1.6,8.7,1.6,9,2s0.3,0.8,0,1.2L6.7,5.5L9,7.9z"/>
</svg>
